<svg width="100" height="41" viewBox="0 0 100 41" fill="none" xmlns="http://www.w3.org/2000/svg">
<path d="M52.8249 0H52.7152C50.6048 4.71944 46.6135 7.12185 39.3774 8.02637C37.4328 8.27966 34.9281 8.30859 33.2133 8.30859C32.6961 8.30859 32.1892 8.30577 31.7041 8.30189V16.2824H36.1812C39.7118 16.2824 44.9551 15.8428 49.8845 13.7484C56.0641 11.1227 60.3083 6.4611 62.3248 0H52.8249Z" fill="#FF5000"></path>
<path d="M54.0476 24.2396L48.8431 17.8349C49.5638 17.5887 50.3417 17.2864 51.0155 17.0017C53.3389 16.0206 55.4333 14.5862 57.2685 13.0897L60.1471 17.2193L67.8154 6.73482L100 6.73447V14.8871H90.4729V40.1657H80.8202V14.8871H73.2186H73.1406L73.0958 14.9506L66.5225 24.2442L79.1509 40.1657H67.1621L60.1528 30.6118L52.7847 40.1657H31.7041V19.5508H41.154V39.8517L54.0476 24.2396ZM14.7133 5.99998C1.93255 5.99998 0.00921227 12.7631 3.86765e-05 16.7946C-0.0193642 25.5604 7.26548 26.6102 13.1191 27.4541C16.8279 27.9885 19.7573 28.4108 19.7573 30.6947C19.7573 32.6635 17.7084 33.5822 13.3093 33.5853C9.63191 33.5853 5.39718 32.7877 0.369045 31.1473V39.0026C3.73277 40.3463 7.98056 41 13.3495 41C24.1497 40.9513 29.4001 37.3763 29.4001 30.071C29.4001 21.3539 22.0193 20.2941 16.0888 19.4425C12.301 18.8986 9.30912 18.4689 9.30912 16.1589C9.30912 13.7819 12.2636 13.2831 14.7422 13.2831C18.6962 13.2831 23.7342 14.6247 27.3346 15.7786V7.93214C22.764 6.63216 18.6348 5.99998 14.7133 5.99998Z" fill="white"></path>
</svg>