<svg width="24" height="24" viewBox="0 0 24 24" fill="none" xmlns="http://www.w3.org/2000/svg">
<path d="M18.4396 8.51931L19.2857 10H21C22.1046 10 23 10.8954 23 12V15H21C21 16.6569 19.6569 18 18 18C16.3431 18 15 16.6569 15 15H9C9 16.6569 7.65685 18 6 18C4.34315 18 3 16.6569 3 15H1V11C1 10.4477 1.44772 10 2 10H3.28571L3.70125 9.03041C4.48915 7.19199 6.29684 6 8.29698 6H14.0984C15.8927 6 17.5494 6.96143 18.4396 8.51931ZM16.7031 9.51158C16.169 8.57686 15.175 8 14.0984 8H12V10H16.9822L16.7031 9.51158ZM5.46165 10H10V8H8.29698C7.0969 8 6.01228 8.71519 5.53955 9.81824L5.46165 10ZM5 15C5 15.5523 5.44772 16 6 16C6.55228 16 7 15.5523 7 15C7 14.4477 6.55228 14 6 14C5.44772 14 5 14.4477 5 15ZM19 15C19 14.4477 18.5523 14 18 14C17.4477 14 17 14.4477 17 15C17 15.5523 17.4477 16 18 16C18.5523 16 19 15.5523 19 15Z" fill="#1A1A1A"></path>
</svg>